<?xml version="1.0" encoding="UTF-8" standalone="no"?>
<!-- Created with Inkscape (http://www.inkscape.org/) -->

<svg
   xmlns:dc="http://purl.org/dc/elements/1.1/"
   xmlns:cc="http://creativecommons.org/ns#"
   xmlns:rdf="http://www.w3.org/1999/02/22-rdf-syntax-ns#"
   xmlns:svg="http://www.w3.org/2000/svg"
   xmlns="http://www.w3.org/2000/svg"
   xmlns:sodipodi="http://sodipodi.sourceforge.net/DTD/sodipodi-0.dtd"
   xmlns:inkscape="http://www.inkscape.org/namespaces/inkscape"
   id="svg2"
   version="1.1"
   inkscape:version="0.48.4 r9939"
   width="186"
   height="27"
   sodipodi:docname="logo_developer.png">
  <metadata
     id="metadata8">
    <rdf:RDF>
      <cc:Work
         rdf:about="">
        <dc:format>image/svg+xml</dc:format>
        <dc:type
           rdf:resource="http://purl.org/dc/dcmitype/StillImage" />
        <dc:title></dc:title>
      </cc:Work>
    </rdf:RDF>
  </metadata>
  <defs
     id="defs6" />
  <sodipodi:namedview
     pagecolor="#ffffff"
     bordercolor="#666666"
     borderopacity="1"
     objecttolerance="10"
     gridtolerance="10"
     guidetolerance="10"
     inkscape:pageopacity="0"
     inkscape:pageshadow="2"
     inkscape:window-width="1680"
     inkscape:window-height="997"
     id="namedview4"
     showgrid="false"
     inkscape:zoom="3"
     inkscape:cx="51.833333"
     inkscape:cy="35.127907"
     inkscape:window-x="-8"
     inkscape:window-y="-8"
     inkscape:window-maximized="1"
     inkscape:current-layer="svg2" />
  <g
     id="g3129"
     transform="matrix(0.15604118,0,0,0.15604118,165.16497,17.140961)">
    <path
       inkscape:export-ydpi="90"
       inkscape:export-xdpi="90"
       inkscape:export-filename="/home/karlisson/brasil.png"
       inkscape:connector-curvature="0"
       id="path3917"
       d="m 133.34135,-109.84891 -2.58759,0.0937 -12.4338,0.53125 -47.805918,2 -0.001,25.156252 35.993008,-1.53125 -8.543198,120.46875 -27.36472,0.15625 0.0259,25.09375 40.450248,-0.28125 0.0313,0 8.24589,-0.0625 2.15625,0 0.13939,-2.15625 0.59046,-8.125 10.38859,-146.09375 0.87747,-12.312502 0.019,-0.1875 -0.0103,-0.15625 -0.17064,-2.59375 z"
       style="font-size:medium;font-style:normal;font-variant:normal;font-weight:normal;font-stretch:normal;text-indent:0;text-align:start;text-decoration:none;line-height:normal;letter-spacing:normal;word-spacing:normal;text-transform:none;direction:ltr;block-progression:tb;writing-mode:lr-tb;text-anchor:start;baseline-shift:baseline;color:#000000;fill:#ffcc00;fill-opacity:1;fill-rule:nonzero;stroke:none;stroke-width:5;marker:none;visibility:visible;display:inline;overflow:visible;enable-background:accumulate;font-family:Sans;-inkscape-font-specification:Sans" />
    <path
       inkscape:connector-curvature="0"
       inkscape:export-ydpi="90"
       inkscape:export-xdpi="90"
       inkscape:export-filename="/home/karlisson/brasil.png"
       id="path3909"
       d="m -70.345548,-101.06766 -43.718752,1.843752 -9.59375,0.40625 -2.53125,0.0937 0.125,2.53125 0.46875,9.65625 7,137.3125 0.53125,10.03125 0.125,2.375 2.40625,0 9.96875,-0.0625 0.0313,0 46.250002,-0.28125 -1.6875,-25.03125 -33.25,0.21875 -5.75,-112.75 31.3125,-1.3125 -1.68755,-25.031202 z"
       style="font-size:medium;font-style:normal;font-variant:normal;font-weight:normal;font-stretch:normal;text-indent:0;text-align:start;text-decoration:none;line-height:normal;letter-spacing:normal;word-spacing:normal;text-transform:none;direction:ltr;block-progression:tb;writing-mode:lr-tb;text-anchor:start;baseline-shift:baseline;color:#000000;fill:#ffcc00;fill-opacity:1;fill-rule:nonzero;stroke:none;stroke-width:5;marker:none;visibility:visible;display:inline;overflow:visible;enable-background:accumulate;font-family:Sans;-inkscape-font-specification:Sans" />
    <path
       inkscape:export-ydpi="90"
       inkscape:export-xdpi="90"
       inkscape:export-filename="/home/karlisson/brasil.png"
       sodipodi:nodetypes="ccccccc"
       inkscape:connector-curvature="0"
       id="path3037"
       d="m -54.715298,-75.896708 -55.517482,52.47616 61.205052,60.08965 17.15768,-14.214 -47.67275,-44.15886 43.36928,-37.36708 z"
       style="fill:#00247d;fill-opacity:1;stroke:none" />
    <path
       inkscape:export-ydpi="90"
       inkscape:export-xdpi="90"
       inkscape:export-filename="/home/karlisson/brasil.png"
       sodipodi:nodetypes="ccccccc"
       inkscape:connector-curvature="0"
       id="path3039"
       d="m 32.988692,-71.044898 18.64704,-15.90992 62.442208,67.16274 -75.214368,53.16996 -16.37546,-17.96443 59.10447,-37.71157 z"
       style="fill:#00247d;fill-opacity:1;stroke:none" />
    <path
       inkscape:export-ydpi="90"
       inkscape:export-xdpi="90"
       inkscape:export-filename="/home/karlisson/brasil.png"
       sodipodi:nodetypes="ccccc"
       inkscape:connector-curvature="0"
       id="path3043"
       d="m -32.166968,-0.90618833 c 0.68113,4.25190003 -1.29895,7.61458003 -3.77459,10.13485003 21.45209,5.9955403 15.98221,-16.04533 12.12794,-24.5254597 -3.08497,-7.52269 -3.96751,-12.58919 -1.29566,-18.80904 -26.909,-3.4069 -6.61735,25.5107497 -7.05769,33.19964967 z"
       style="fill:#cf142b;fill-opacity:1;stroke:none" />
    <path
       inkscape:export-ydpi="90"
       inkscape:export-xdpi="90"
       inkscape:export-filename="/home/karlisson/brasil.png"
       transform="matrix(2.7768196,0.03885627,-0.28630637,2.6372842,-256.92332,-833.06941)"
       d="m 114.28613,297.26053 c 0,1.31802 -1.00911,2.38648 -2.2539,2.38648 -1.2448,0 -2.25391,-1.06846 -2.25391,-2.38648 0,-1.31802 1.00911,-2.38649 2.25391,-2.38649 1.24479,0 2.2539,1.06847 2.2539,2.38649 z"
       sodipodi:ry="2.3864853"
       sodipodi:rx="2.2539029"
       sodipodi:cy="297.26053"
       sodipodi:cx="112.03223"
       id="path3045"
       style="color:#000000;fill:#cf142b;fill-opacity:1;fill-rule:evenodd;stroke:none;stroke-width:0.9718253px;marker:none;visibility:visible;display:inline;overflow:visible;enable-background:accumulate"
       sodipodi:type="arc" />
    <path
       inkscape:export-ydpi="90"
       inkscape:export-xdpi="90"
       inkscape:export-filename="/home/karlisson/brasil.png"
       inkscape:connector-curvature="0"
       id="path3108"
       d="m 9.5592717,-56.762248 c -16.04571,-0.69582 -29.6740397,12.07248 -30.4292397,28.53882 -0.75519,16.46635 11.6490497,30.3889197 27.6947497,31.0847397 16.0457003,0.69582 29.6505103,-12.09888 30.4057003,-28.5652397 0.75519,-16.46634 -11.62551,-30.3625 -27.6712103,-31.05832 z m -0.6043,13.17648 c 8.9485703,0.38805 15.8568003,8.14188 15.4356403,17.32505 -0.42117,9.18316 -8.01179,16.3082597 -16.9603603,15.92021 -8.94857,-0.38805 -15.8815,-8.14296 -15.46034,-17.32613 0.42116,-9.18316 8.03648997,-16.30719 16.98506,-15.91913 z"
       style="color:#000000;fill:#cf142b;fill-opacity:1;fill-rule:evenodd;stroke:none;stroke-width:1px;marker:none;visibility:visible;display:inline;overflow:visible;enable-background:accumulate" />
  </g>
  <text
     xml:space="preserve"
     style="font-size:44.99999619px;font-style:normal;font-weight:normal;line-height:125%;letter-spacing:0px;word-spacing:0px;fill:#000000;fill-opacity:1;stroke:none;font-family:Sans"
     x="6.8662109"
     y="20.513672"
     id="text3138"
     sodipodi:linespacing="125%"><tspan
       sodipodi:role="line"
       id="tspan3140"
       x="6.8662109"
       y="20.513672"
       style="font-size:27px;font-style:normal;font-variant:normal;font-weight:normal;font-stretch:normal;font-family:Open Sans;-inkscape-font-specification:Open Sans"><tspan
   style="font-weight:bold;-inkscape-font-specification:Open Sans Bold"
   id="tspan3142">api</tspan>.vzla.io</tspan></text>
</svg>
