<?xml version="1.0" encoding="UTF-8" standalone="no"?>
<!-- Created with Inkscape (http://www.inkscape.org/) -->

<svg
   xmlns:dc="http://purl.org/dc/elements/1.1/"
   xmlns:cc="http://creativecommons.org/ns#"
   xmlns:rdf="http://www.w3.org/1999/02/22-rdf-syntax-ns#"
   xmlns:svg="http://www.w3.org/2000/svg"
   xmlns="http://www.w3.org/2000/svg"
   xmlns:sodipodi="http://sodipodi.sourceforge.net/DTD/sodipodi-0.dtd"
   xmlns:inkscape="http://www.inkscape.org/namespaces/inkscape"
   width="24"
   height="24"
   id="svg3161"
   version="1.1"
   inkscape:version="0.48.4 r9939"
   sodipodi:docname="Documento nuevo 6">
  <defs
     id="defs3163" />
  <sodipodi:namedview
     id="base"
     pagecolor="#ffffff"
     bordercolor="#666666"
     borderopacity="1.0"
     inkscape:pageopacity="0.0"
     inkscape:pageshadow="2"
     inkscape:zoom="22.627417"
     inkscape:cx="4.8552299"
     inkscape:cy="8.2099533"
     inkscape:document-units="px"
     inkscape:current-layer="layer1"
     showgrid="false"
     inkscape:window-width="1680"
     inkscape:window-height="997"
     inkscape:window-x="-8"
     inkscape:window-y="-8"
     inkscape:window-maximized="1" />
  <metadata
     id="metadata3166">
    <rdf:RDF>
      <cc:Work
         rdf:about="">
        <dc:format>image/svg+xml</dc:format>
        <dc:type
           rdf:resource="http://purl.org/dc/dcmitype/StillImage" />
        <dc:title></dc:title>
      </cc:Work>
    </rdf:RDF>
  </metadata>
  <g
     inkscape:label="Capa 1"
     inkscape:groupmode="layer"
     id="layer1"
     transform="translate(0,-1028.3622)">
    <g
       id="g3188"
       transform="matrix(0.09241008,0,0,0.09241008,11.463697,944.67964)">
      <path
         inkscape:export-ydpi="90"
         inkscape:export-xdpi="90"
         inkscape:export-filename="/home/karlisson/brasil.png"
         inkscape:connector-curvature="0"
         id="path3917"
         d="m 135.4782,948.89684 -2.58759,0.094 -12.4338,0.5312 -47.805922,2 -10e-4,25.1563 35.993012,-1.5313 -8.5432,120.46876 -27.364722,0.1562 0.0259,25.0938 40.450252,-0.2813 0.0313,0 8.24589,-0.062 2.15625,0 0.13939,-2.1562 0.59046,-8.125 10.38859,-146.09376 0.87747,-12.3125 0.019,-0.1875 -0.0103,-0.1562 -0.17064,-2.5938 z"
         style="font-size:medium;font-style:normal;font-variant:normal;font-weight:normal;font-stretch:normal;text-indent:0;text-align:start;text-decoration:none;line-height:normal;letter-spacing:normal;word-spacing:normal;text-transform:none;direction:ltr;block-progression:tb;writing-mode:lr-tb;text-anchor:start;baseline-shift:baseline;color:#000000;fill:#ffcc00;fill-opacity:1;fill-rule:nonzero;stroke:none;stroke-width:5;marker:none;visibility:visible;display:inline;overflow:visible;enable-background:accumulate;font-family:Sans;-inkscape-font-specification:Sans" />
      <path
         inkscape:connector-curvature="0"
         inkscape:export-ydpi="90"
         inkscape:export-xdpi="90"
         inkscape:export-filename="/home/karlisson/brasil.png"
         id="path3909"
         d="m -68.208702,957.67804 -43.718748,1.8438 -9.59375,0.4062 -2.53125,0.094 0.125,2.5313 0.46875,9.6562 7,137.31246 0.53125,10.0313 0.125,2.375 2.40625,0 9.96875,-0.062 0.0313,0 46.249998,-0.2813 -1.6875,-25.0312 -33.25,0.2187 -5.75,-112.74996 31.3125,-1.3125 -1.68755,-25.0312 z"
         style="font-size:medium;font-style:normal;font-variant:normal;font-weight:normal;font-stretch:normal;text-indent:0;text-align:start;text-decoration:none;line-height:normal;letter-spacing:normal;word-spacing:normal;text-transform:none;direction:ltr;block-progression:tb;writing-mode:lr-tb;text-anchor:start;baseline-shift:baseline;color:#000000;fill:#ffcc00;fill-opacity:1;fill-rule:nonzero;stroke:none;stroke-width:5;marker:none;visibility:visible;display:inline;overflow:visible;enable-background:accumulate;font-family:Sans;-inkscape-font-specification:Sans" />
      <path
         inkscape:export-ydpi="90"
         inkscape:export-xdpi="90"
         inkscape:export-filename="/home/karlisson/brasil.png"
         sodipodi:nodetypes="ccccccc"
         inkscape:connector-curvature="0"
         id="path3037"
         d="m -52.578452,982.84904 -55.517478,52.47606 61.205048,60.0897 17.15768,-14.214 -47.67275,-44.1589 43.36928,-37.36706 z"
         style="fill:#00247d;fill-opacity:1;stroke:none" />
      <path
         inkscape:export-ydpi="90"
         inkscape:export-xdpi="90"
         inkscape:export-filename="/home/karlisson/brasil.png"
         sodipodi:nodetypes="ccccccc"
         inkscape:connector-curvature="0"
         id="path3039"
         d="m 35.125538,987.70084 18.64704,-15.91 62.442212,67.16276 -75.214372,53.1699 -16.37546,-17.9644 59.10447,-37.7116 z"
         style="fill:#00247d;fill-opacity:1;stroke:none" />
      <path
         inkscape:export-ydpi="90"
         inkscape:export-xdpi="90"
         inkscape:export-filename="/home/karlisson/brasil.png"
         sodipodi:nodetypes="ccccc"
         inkscape:connector-curvature="0"
         id="path3043"
         d="m -30.030122,1057.8395 c 0.68113,4.2519 -1.29895,7.6146 -3.77459,10.1348 21.45209,5.9956 15.98221,-16.0453 12.12794,-24.5254 -3.08497,-7.5227 -3.96751,-12.5892 -1.29566,-18.8091 -26.909,-3.4069 -6.61735,25.5108 -7.05769,33.1997 z"
         style="fill:#cf142b;fill-opacity:1;stroke:none" />
      <path
         inkscape:export-ydpi="90"
         inkscape:export-xdpi="90"
         inkscape:export-filename="/home/karlisson/brasil.png"
         transform="matrix(2.7768196,0.03885627,-0.28630637,2.6372842,-254.78647,225.67629)"
         d="m 114.28613,297.26053 c 0,1.31802 -1.00911,2.38648 -2.2539,2.38648 -1.2448,0 -2.25391,-1.06846 -2.25391,-2.38648 0,-1.31802 1.00911,-2.38649 2.25391,-2.38649 1.24479,0 2.2539,1.06847 2.2539,2.38649 z"
         sodipodi:ry="2.3864853"
         sodipodi:rx="2.2539029"
         sodipodi:cy="297.26053"
         sodipodi:cx="112.03223"
         id="path3045"
         style="color:#000000;fill:#cf142b;fill-opacity:1;fill-rule:evenodd;stroke:none;stroke-width:0.9718253px;marker:none;visibility:visible;display:inline;overflow:visible;enable-background:accumulate"
         sodipodi:type="arc" />
      <path
         inkscape:export-ydpi="90"
         inkscape:export-xdpi="90"
         inkscape:export-filename="/home/karlisson/brasil.png"
         inkscape:connector-curvature="0"
         id="path3108"
         d="m 11.696118,1001.9834 c -16.0457096,-0.6958 -29.67404,12.0725 -30.42924,28.5388 -0.75519,16.4664 11.6490504,30.389 27.6947504,31.0848 16.0456996,0.6958 29.6505096,-12.0989 30.4056996,-28.5653 0.75519,-16.4663 -11.62551,-30.3625 -27.67121,-31.0583 z m -0.6043,13.1765 c 8.94857,0.388 15.8568,8.1419 15.43564,17.325 -0.42117,9.1832 -8.01179,16.3083 -16.9603596,15.9203 -8.94856996,-0.3881 -15.8815,-8.143 -15.46034,-17.3262 0.42116,-9.1831 8.03649,-16.3072 16.9850596,-15.9191 z"
         style="color:#000000;fill:#cf142b;fill-opacity:1;fill-rule:evenodd;stroke:none;stroke-width:1px;marker:none;visibility:visible;display:inline;overflow:visible;enable-background:accumulate" />
    </g>
  </g>
</svg>
